P3
# Created by GIMP version 2.10.30 PNM plug-in
2 2
255
173
243
199
86
83
237
237
222
83
237
88
218
